<svg t="1608106768593" class="icon" viewBox="0 0 1024 1024" version="1.1" xmlns="http://www.w3.org/2000/svg" p-id="4304" width="200" height="200"><path d="M512 1013.76c-277.11488 0-501.76-224.64512-501.76-501.76S234.88512 10.24 512 10.24s501.76 224.64512 501.76 501.76-224.64512 501.76-501.76 501.76z m-55.0144-375.8592L274.24768 505.00608a32.1536 32.1536 0 0 0-44.544 6.58944 32.128 32.128 0 0 0 5.74464 44.6464l207.78496 163.49184a30.72 30.72 0 0 0 42.9056-4.84864l307.01056-380.38528a28.32896 28.32896 0 0 0-3.10784-38.8608 26.4192 26.4192 0 0 0-37.59616 2.32448L456.9856 637.9008z" p-id="4305"></path></svg>